<?xml version="1.0" encoding="utf-8"?><svg width="321" height="68" fill="none" xmlns="http://www.w3.org/2000/svg" viewBox="0 0 321 68"><path fill-rule="evenodd" clip-rule="evenodd" d="M159.846 60.946c13.358 8.94 33.358 8.94 46.331 0v-5.52c-14.826 8.708-31.661 8.708-46.331 0v5.52zm23.243-7.568c-11.197 0-18.92-8.086-18.92-19.67 0-11.428 7.723-19.435 18.92-19.435 11.119 0 18.764 7.93 18.764 19.436 0 11.583-7.645 19.669-18.764 19.669zm-.003-44.39c-14.672 0-25.095 10.34-25.095 24.723 0 14.538 10.423 24.955 25.095 24.955 14.673 0 24.942-10.34 24.942-24.955 0-14.46-10.269-24.722-24.942-24.722zm-23.24-2.283v5.52c14.67-8.707 31.505-8.707 46.331 0v-5.52c-12.973-8.94-32.973-8.94-46.331 0zM0 9.85h40.386v47.733h-6.332v-41.67H6.41v41.67H0V9.85zm102.483 0h8.416l16.371 40.814 15.907-40.814h8.416v47.734h-6.1V30.606c0-6.92.155-9.563.464-14.305h-.154c-.695 2.799-1.544 5.676-5.252 14.77l-10.501 25.89h-6.254L111.98 28.117c-2.238-5.442-3.552-9.874-3.938-11.817h-.153c.307 3.265.463 8.552.463 14.071v27.21h-5.869V9.85zm174.581 41.98v15.627h-6.023v-9.873h-56.447V9.849h6.023v41.98h18.919V9.85h6.1v41.98h18.918V9.85h6.101v41.98h6.409zm5.712-41.98h6.022v19.435h17.916c9.112 0 14.286 5.13 14.286 13.993 0 8.63-5.947 14.306-15.213 14.306h-23.011V9.849zm23.013 41.59c5.328 0 8.571-3.031 8.571-8.24 0-5.21-3.01-8.008-8.571-8.008H288.8V51.44h16.989zM46.879 33.482c0-14.383 10.425-24.723 24.633-24.723 14.21 0 24.478 10.263 24.478 24.723 0 14.615-10.269 24.954-24.478 24.954-14.209 0-24.633-10.417-24.633-24.954zm42.934-.002c0-11.506-7.645-19.436-18.3-19.436-10.735 0-18.455 8.008-18.455 19.436 0 11.584 7.72 19.669 18.455 19.669 10.655 0 18.3-8.085 18.3-19.67z" fill="#fff"/></svg>