<?xml version="1.0" encoding="utf-8"?><svg viewBox="0 0 556 441" xmlns="http://www.w3.org/2000/svg" xmlns:xlink="http://www.w3.org/1999/xlink"><style>:root>svg{display:none}:root>svg:target{display:block}</style><svg fill="none" viewBox="0 0 23 22" id="checkbox" xmlns="http://www.w3.org/2000/svg"><path fill-rule="evenodd" clip-rule="evenodd" d="M3.307 2.253a1.06 1.06 0 00-.752.313c-.2.2-.311.472-.311.755v15.358a1.06 1.06 0 001.063 1.067H18.6c.282 0 .552-.112.751-.312.2-.2.312-.472.312-.755V11c0-.622.502-1.127 1.122-1.127.62 0 1.122.505 1.122 1.127v7.68c0 .88-.349 1.725-.969 2.347a3.3 3.3 0 01-2.338.973H3.307a3.3 3.3 0 01-2.338-.973A3.328 3.328 0 010 18.68V3.321C0 2.44.348 1.595.969.973A3.3 3.3 0 013.307 0h12.017c.62 0 1.121.504 1.121 1.127 0 .622-.502 1.126-1.122 1.126H3.307zm19.364-.826a1.13 1.13 0 010 1.593L11.747 13.99c-.438.44-1.148.44-1.587 0L6.883 10.7a1.13 1.13 0 010-1.594 1.119 1.119 0 011.587 0l2.484 2.495 10.13-10.174a1.119 1.119 0 011.587 0z" fill="#FF6562"/></svg><svg fill="none" viewBox="0 0 321 68" id="help" xmlns="http://www.w3.org/2000/svg"><path fill-rule="evenodd" clip-rule="evenodd" d="M159.846 60.946c13.358 8.94 33.358 8.94 46.331 0v-5.52c-14.826 8.708-31.661 8.708-46.331 0v5.52zm23.243-7.568c-11.197 0-18.92-8.086-18.92-19.67 0-11.428 7.723-19.435 18.92-19.435 11.119 0 18.764 7.93 18.764 19.436 0 11.583-7.645 19.669-18.764 19.669zm-.003-44.39c-14.672 0-25.095 10.34-25.095 24.723 0 14.538 10.423 24.955 25.095 24.955 14.673 0 24.942-10.34 24.942-24.955 0-14.46-10.269-24.722-24.942-24.722zm-23.24-2.283v5.52c14.67-8.707 31.505-8.707 46.331 0v-5.52c-12.973-8.94-32.973-8.94-46.331 0zM0 9.85h40.386v47.733h-6.332v-41.67H6.41v41.67H0V9.85zm102.483 0h8.416l16.371 40.814 15.907-40.814h8.416v47.734h-6.1V30.606c0-6.92.155-9.563.464-14.305h-.154c-.695 2.799-1.544 5.676-5.252 14.77l-10.501 25.89h-6.254L111.98 28.117c-2.238-5.442-3.552-9.874-3.938-11.817h-.153c.307 3.265.463 8.552.463 14.071v27.21h-5.869V9.85zm174.581 41.98v15.627h-6.023v-9.873h-56.447V9.849h6.023v41.98h18.919V9.85h6.1v41.98h18.918V9.85h6.101v41.98h6.409zm5.712-41.98h6.022v19.435h17.916c9.112 0 14.286 5.13 14.286 13.993 0 8.63-5.947 14.306-15.213 14.306h-23.011V9.849zm23.013 41.59c5.328 0 8.571-3.031 8.571-8.24 0-5.21-3.01-8.008-8.571-8.008H288.8V51.44h16.989zM46.879 33.482c0-14.383 10.425-24.723 24.633-24.723 14.21 0 24.478 10.263 24.478 24.723 0 14.615-10.269 24.954-24.478 24.954-14.209 0-24.633-10.417-24.633-24.954zm42.934-.002c0-11.506-7.645-19.436-18.3-19.436-10.735 0-18.455 8.008-18.455 19.436 0 11.584 7.72 19.669 18.455 19.669 10.655 0 18.3-8.085 18.3-19.67z" fill="#fff"/></svg><svg fill="none" viewBox="0 0 448 410" id="help-blur1" xmlns="http://www.w3.org/2000/svg"><g filter="url(#cfilter0_f_4899_31661)"><ellipse cx="195.498" cy="225.864" rx="106.573" ry="68.517" transform="rotate(35.956 195.498 225.864)" fill="#FDE598"/></g><g filter="url(#cfilter1_f_4899_31661)"><ellipse cx="253.838" cy="182.988" rx="104.368" ry="68.517" transform="rotate(35.956 253.838 182.988)" fill="#F55"/></g><defs><filter id="cfilter0_f_4899_31661" x=".289" y="42.246" width="390.422" height="367.236" filterUnits="userSpaceOnUse" color-interpolation-filters="sRGB"><feFlood flood-opacity="0" result="BackgroundImageFix"/><feBlend in="SourceGraphic" in2="BackgroundImageFix" result="shape"/><feGaussianBlur stdDeviation="50" result="effect1_foregroundBlur_4899_31661"/></filter><filter id="cfilter1_f_4899_31661" x="60.242" y=".334" width="387.188" height="365.307" filterUnits="userSpaceOnUse" color-interpolation-filters="sRGB"><feFlood flood-opacity="0" result="BackgroundImageFix"/><feBlend in="SourceGraphic" in2="BackgroundImageFix" result="shape"/><feGaussianBlur stdDeviation="50" result="effect1_foregroundBlur_4899_31661"/></filter></defs></svg><svg fill="none" viewBox="0 0 556 441" id="help-blur2" xmlns="http://www.w3.org/2000/svg"><g filter="url(#dfilter0_f_4942_33453)"><ellipse cx="334.368" cy="243.497" rx="131.949" ry="71.878" transform="rotate(-32.824 334.368 243.497)" fill="#FDE598"/></g><g filter="url(#dfilter1_f_4942_33453)"><ellipse cx="218.636" cy="196.422" rx="129.219" ry="71.878" transform="rotate(-32.824 218.636 196.422)" fill="#F55"/></g><defs><filter id="dfilter0_f_4942_33453" x="113.65" y="46.724" width="441.434" height="393.545" filterUnits="userSpaceOnUse" color-interpolation-filters="sRGB"><feFlood flood-opacity="0" result="BackgroundImageFix"/><feBlend in="SourceGraphic" in2="BackgroundImageFix" result="shape"/><feGaussianBlur stdDeviation="51.577" result="effect1_foregroundBlur_4942_33453"/></filter><filter id="dfilter1_f_4942_33453" x=".088" y=".775" width="437.098" height="391.294" filterUnits="userSpaceOnUse" color-interpolation-filters="sRGB"><feFlood flood-opacity="0" result="BackgroundImageFix"/><feBlend in="SourceGraphic" in2="BackgroundImageFix" result="shape"/><feGaussianBlur stdDeviation="51.577" result="effect1_foregroundBlur_4942_33453"/></filter></defs></svg><div class="eHelpPreview_help-preview__star__gnnUG eHelpPreview_help-preview__star_2__S_BM1" viewBox="0 0 45.09 45.09" id="star"><svg width="46" height="46" fill="none" xmlns="http://www.w3.org/2000/svg"><path d="M40.908 4.97L25.834 21.64l19.488 11.197-20.513-9.185-4.626 21.994 2.397-22.347L.233 25.696l21.994-4.627L13.042.558l11.196 19.488L40.908 4.97z" fill="#fff"/></svg></div></svg>